<?xml version="1.0" encoding="utf-8" standalone="no"?>
<!DOCTYPE svg>

<svg xmlns="http://www.w3.org/2000/svg" width="3.55556in" height="3.55556in" viewBox="0 0 256 256">
    <path id="Selection" fill="#6E5046" stroke="#000000" stroke-width="1"
        d="M  72.00, 158.00
           C  72.00, 158.00  72.00, 217.00  72.00, 217.00
              71.99, 221.14  72.31, 224.67  68.85, 227.68
              65.08, 230.97  56.61, 228.62  54.02, 224.61
              52.87, 222.82  53.01, 220.06  53.00, 218.00
              53.00, 218.00  53.00, 195.00  53.00, 195.00
              53.00, 195.00  51.95, 179.00  51.95, 179.00
              51.95, 179.00  51.95, 157.00  51.95, 157.00
              51.48, 153.26  50.06, 147.62  51.95, 144.18
              53.65, 141.34  61.89, 136.72  65.00, 134.81
              65.00, 134.81  93.00, 117.58  93.00, 117.58
              96.60, 115.34 104.06, 111.19 106.26, 107.91
             108.49, 104.59 109.64,  87.92 110.16,  83.00
             110.16,  83.00 114.85,  44.00 114.85,  44.00
             114.85,  44.00 118.06,  19.00 118.06,  19.00
             119.98,  12.10 123.72,  11.64 130.00,  12.58
             131.83,  12.85 134.78,  13.04 135.99,  14.60
             137.54,  16.63 136.32,  21.55 135.99,  24.00
             135.99,  24.00 187.00,  31.00 187.00,  31.00
             192.15,  19.72 194.87,  22.63 205.00,  24.00
             205.00,  24.00 202.17,  54.00 202.17,  54.00
             202.17,  54.00 196.83, 108.00 196.83, 108.00
             196.83, 108.00 194.84, 129.00 194.84, 129.00
             194.84, 129.00 194.84, 138.00 194.84, 138.00
             194.84, 138.00 194.84, 196.00 194.84, 196.00
             194.99, 199.58 195.30, 202.98 192.69, 205.84
             189.53, 209.29 181.63, 208.43 179.02, 204.57
             177.78, 202.73 178.00, 199.18 178.00, 197.00
             178.00, 197.00 177.00, 149.00 177.00, 149.00
             173.11, 152.19 158.81, 163.52 157.02, 167.01
             155.90, 169.20 156.02, 171.62 156.00, 174.00
             156.00, 174.00 155.00, 233.00 155.00, 233.00
             155.00, 235.32 155.24, 238.53 154.01, 240.56
             150.13, 246.95 140.77, 243.95 139.02, 241.49
             137.77, 239.73 138.00, 236.12 138.00, 234.00
             138.00, 234.00 138.00, 171.00 138.00, 171.00
             138.00, 171.00 124.00, 169.00 124.00, 169.00
             124.00, 172.76 124.67, 185.90 123.01, 188.60
             118.67, 195.18 107.78, 193.95 105.15, 188.60
             104.56, 187.16 105.01, 176.54 105.15, 174.00
             104.99, 171.44 105.35, 167.67 103.40, 165.73
             101.64, 163.97  96.50, 163.30  94.00, 162.80
              94.00, 162.80  72.00, 158.00  72.00, 158.00 Z
           M 185.00,  55.00
           C 185.00,  55.00 162.00,  50.92 162.00,  50.92
             162.00,  50.92 135.00,  47.00 135.00,  47.00
             135.00,  47.00 134.00,  56.00 134.00,  56.00
             134.00,  56.00 184.00,  62.00 184.00,  62.00
             184.00,  62.00 185.00,  55.00 185.00,  55.00 Z
           M 181.00,  85.00
           C 181.00,  85.00 132.00,  78.00 132.00,  78.00
             132.00,  78.00 128.00, 112.00 128.00, 112.00
             128.00, 112.00 163.00, 117.80 163.00, 117.80
             163.00, 117.80 176.26, 118.97 176.26, 118.97
             176.26, 118.97 178.42, 110.00 178.42, 110.00
             178.42, 110.00 181.00,  85.00 181.00,  85.00 Z"
    />
</svg>
